<?xml version="1.0" standalone="no"?>
<!DOCTYPE svg PUBLIC "-//W3C//DTD SVG 20010904//EN"
 "http://www.w3.org/TR/2001/REC-SVG-20010904/DTD/svg10.dtd">
<svg version="1.0" xmlns="http://www.w3.org/2000/svg"
 width="1005.000000pt" height="452.000000pt" viewBox="0 0 1005.000000 452.000000"
 preserveAspectRatio="xMidYMid meet">

<g transform="translate(0.000000,452.000000) scale(0.100000,-0.100000)"
fill="#780000" stroke="none">
<path d="M0 2260 l0 -2260 5025 0 5025 0 0 2260 0 2260 -5025 0 -5025 0 0
-2260z m1341 1387 c20 -61 84 -240 142 -397 57 -157 120 -329 138 -382 19 -54
36 -98 39 -98 7 0 295 484 451 758 l132 232 3528 0 c1941 0 3529 -2 3529 -5 0
-3 -25 -66 -56 -140 l-57 -135 -3296 -2 -3296 -3 -153 -255 c-85 -140 -241
-398 -349 -572 l-195 -318 -292 0 -293 0 -52 143 c-55 148 -464 1239 -476
1270 -7 16 9 17 256 17 l264 0 36 -113z m3577 -288 c127 -20 222 -73 271 -152
38 -61 54 -149 42 -227 -18 -115 -47 -178 -112 -243 -67 -67 -133 -100 -258
-130 l-88 -21 106 -74 c108 -76 231 -170 231 -178 0 -2 -138 -4 -308 -4 l-308
0 -301 248 -301 247 87 5 c47 3 197 7 333 8 333 4 380 12 418 75 42 68 14 146
-58 167 -22 6 -180 10 -392 10 l-356 0 -79 -380 -78 -380 -239 0 c-138 0 -238
4 -238 9 0 5 32 155 70 333 109 501 150 690 150 694 0 5 1153 10 1265 6 44 -2
108 -7 143 -13z m-1660 -36 c-33 -161 -152 -703 -184 -835 l-38 -157 -243 -3
c-240 -3 -244 -3 -239 17 15 61 226 1013 226 1019 0 3 110 6 244 6 l244 0 -10
-47z m3563 -68 c76 -166 409 -914 409 -920 0 -3 -121 -5 -269 -5 l-268 0 -29
75 -29 75 -362 0 -362 0 -52 -75 -51 -75 -286 0 -285 0 19 23 c11 12 47 54 80
92 191 223 702 805 768 873 l51 52 308 -2 308 -3 50 -110z m1208 78 c-5 -21
-38 -180 -74 -353 -36 -173 -67 -325 -70 -337 l-5 -22 540 6 c461 5 540 4 540
-8 0 -8 -14 -75 -30 -149 -17 -74 -30 -136 -30 -137 0 -2 -354 -3 -786 -3
l-786 0 7 28 c16 62 99 429 136 602 22 102 51 236 65 298 l26 112 238 0 238 0
-9 -37z m-801 -1141 c179 -40 285 -110 344 -229 28 -58 32 -76 36 -171 5 -132
-20 -248 -78 -367 -113 -228 -320 -346 -664 -376 -201 -18 -674 -6 -794 20
-166 35 -270 99 -318 194 -77 150 -65 352 31 552 114 238 328 362 682 395 48
4 219 7 378 5 249 -2 303 -5 383 -23z m-2197 14 c3 -3 -10 -65 -28 -138 -18
-73 -35 -143 -38 -155 l-5 -23 -544 0 c-489 0 -546 -2 -561 -16 -9 -9 -15 -24
-13 -33 7 -37 64 -47 468 -81 405 -33 484 -49 555 -111 51 -45 68 -101 63
-206 -3 -72 -10 -100 -35 -154 -52 -111 -129 -169 -281 -212 -74 -20 -99 -21
-729 -25 -359 -2 -653 0 -653 5 1 4 15 71 33 148 l33 140 570 5 c619 5 608 4
602 59 -3 22 -11 28 -51 38 -26 6 -98 16 -160 22 -334 32 -448 44 -531 56
-189 29 -289 78 -334 165 -20 38 -23 56 -19 115 9 145 84 260 214 328 89 46
136 58 263 67 120 7 1174 13 1181 6z m669 -1 c0 -3 -9 -45 -19 -93 -11 -48
-63 -296 -116 -552 -52 -256 -97 -475 -100 -487 l-5 -23 -225 0 c-184 0 -225
2 -225 14 0 14 118 600 190 945 22 107 40 195 40 197 0 2 104 4 230 4 127 0
230 -2 230 -5z m2732 -132 c276 -310 462 -518 465 -522 8 -11 15 20 62 254 28
138 59 284 69 325 l17 75 218 3 217 2 -5 -22 c-5 -20 -124 -605 -204 -998
l-27 -135 -215 -3 -214 -2 -126 137 c-69 76 -205 228 -304 337 l-179 199 -58
-294 c-32 -162 -60 -313 -64 -336 l-6 -43 -235 0 c-224 0 -234 1 -228 19 6 19
122 570 196 929 l44 212 227 0 227 0 123 -137z m-7233 100 c7 -16 80 -189 162
-386 82 -197 155 -369 162 -383 13 -24 21 -14 337 385 l325 410 248 1 c136 0
247 -3 247 -8 0 -4 -121 -159 -270 -344 -148 -185 -347 -439 -443 -565 l-174
-228 -307 0 -308 0 -79 205 c-44 113 -113 295 -155 405 -89 236 -119 293 -211
399 -37 43 -78 92 -91 108 l-23 28 284 0 284 0 12 -27z m2074 -10 c-6 -40 -87
-440 -174 -860 l-52 -253 -234 0 c-128 0 -233 2 -233 5 0 5 182 869 226 1073
l15 72 229 0 229 0 -6 -37z m5938 -1228 c3 -2 -8 -65 -25 -140 l-29 -135
-3917 0 -3917 0 -52 135 c-28 74 -51 137 -51 140 0 6 7985 7 7991 0z"/>
<path d="M6272 2887 l-123 -142 182 -3 c100 -1 184 -1 186 2 5 5 -110 286
-117 286 -3 0 -60 -64 -128 -143z"/>
<path d="M6484 1880 c-84 -6 -110 -12 -154 -36 -91 -50 -148 -155 -157 -294
-5 -67 -3 -79 18 -109 13 -19 46 -46 74 -60 50 -26 50 -26 315 -26 248 0 270
2 338 23 125 39 200 129 221 263 18 113 -9 175 -95 219 -47 24 -55 25 -254 26
-113 1 -251 -2 -306 -6z"/>
</g>
</svg>
